#!OML:ASF F:\VICON\USERDATA\INSTALL\rory3\rory3.ASF
:FULLY-SPECIFIED
:DEGREES
51
root 0.237596 17.3401 -2.83122 2.7394 3.80045 4.981
lowerback 18.5634 0.215287 -6.94897
upperback 3.13733 -1.29547 -2.88462
thorax -6.92084 -0.492521 1.15048
lowerneck -6.52749 -0.661112 -1.34227
upperneck -12.9503 -0.443525 4.18419
head -3.02497 -0.268319 1.59398
rclavicle 1.03368e-014 2.46493e-014
rhumerus -46.7478 10.1804 -88.104
rradius 89.4088
rwrist 5.54926
rhand -38.3831 34.8332
rfingers 7.12502
rthumb -11.4087 5.16354
lclavicle 1.03368e-014 2.46493e-014
lhumerus -19.0158 -17.5472 85.4714
lradius 112.996
lwrist 31.2416
lhand -34.9056 10.7743
lfingers 7.12502
lthumb -8.0537 40.6009
rfemur -17.7283 -9.27136 12.139
rtibia 110.79
rfoot 22.8426 -7.10851
rtoes 29.7775
lfemur -17.0655 -3.05446 -29.0568
ltibia 40.3011
lfoot -17.7682 0.352473
ltoes -17.9407
52
root 0.26211 17.3478 -2.35734 3.18321 3.22718 5.32749
lowerback 18.3333 0.175792 -7.13131
upperback 3.01596 -1.38538 -3.08029
thorax -6.92308 -0.532104 1.06152
lowerneck -6.2402 -0.460427 -1.21255
upperneck -13.3397 -0.183798 4.01378
head -3.21862 -0.146922 1.52136
rclavicle -6.36111e-015 -8.74653e-015
rhumerus -47.9213 9.25053 -88.1824
rradius 89.1365
rwrist 5.4992
rhand -37.9854 34.717
rfingers 7.12502
rthumb -11.0252 5.02651
lclavicle -6.36111e-015 -8.74653e-015
lhumerus -16.906 -18.0608 84.97
lradius 113.046
lwrist 30.6423
lhand -34.6737 9.39643
lfingers 7.12502
lthumb -7.82984 39.2314
rfemur -21.5146 -9.12774 11.8948
rtibia 112.15
rfoot 21.4738 -7.15132
rtoes 27.9778
lfemur -15.2402 -2.89732 -29.5253
ltibia 39.4818
lfoot -18.0661 0.76362
ltoes -18.7679
53
root 0.274805 17.3761 -1.87107 3.56812 2.81689 5.62099
lowerback 18.1095 0.0313657 -7.3847
upperback 2.7623 -1.63047 -3.20356
thorax -7.05767 -0.637419 1.12617
lowerneck -6.06455 -0.175015 -1.12732
upperneck -12.9338 0.163278 3.80044
head -3.11776 0.0285657 1.42888
rclavicle -8.54774e-015 -1.43125e-014
rhumerus -49.2196 8.64197 -88.3157
rradius 89.0735
rwrist 4.90422
rhand -37.5113 35.3973
rfingers 7.12502
rthumb -10.5679 5.68296
lclavicle -8.54774e-015 -1.43125e-014
lhumerus -15.5223 -18.2293 84.6019
lradius 113.315
lwrist 29.8139
lhand -33.6076 9.38535
lfingers 7.12502
lthumb -6.80076 39.2561
rfemur -25.0906 -9.01077 11.9154
rtibia 112.856
rfoot 17.9034 -7.24072
rtoes 17.7309
lfemur -12.9721 -2.79706 -29.8907
ltibia 38.2121
lfoot -18.8082 0.951919
ltoes -19.4717
54
root 0.279451 17.4274 -1.38648 3.70896 2.49228 6.00163
lowerback 18.3535 -0.186874 -7.82593
upperback 2.34592 -2.06484 -3.2423
thorax -7.60049 -0.808983 1.43818
lowerneck -5.55033 0.155266 -1.18355
upperneck -12.3961 0.56053 3.47883
head -3.03287 0.2358 1.32564
rclavicle -2.08724e-014 9.54166e-015
rhumerus -50.8547 8.56239 -88.5062
rradius 89.1911
rwrist 4.57599
rhand -37.4378 35.1956
rfingers 7.12502
rthumb -10.497 5.47767
lclavicle -2.08724e-014 9.54166e-015
lhumerus -15.1414 -17.9918 84.5782
lradius 113.833
lwrist 28.8479
lhand -33.3552 9.88883
lfingers 7.12502
lthumb -6.55716 39.7673
rfemur -28.4144 -8.81962 11.933
rtibia 113.002
rfoot 16.7336 -6.72632
rtoes 13.568
lfemur -10.3639 -2.78103 -30.3366
ltibia 36.5215
lfoot -17.8164 1.09295
ltoes -23.615
55
root 0.284834 17.4993 -0.893142 3.58805 2.38294 6.22713
lowerback 19.0646 -0.4666 -8.10772
upperback 1.94917 -2.59448 -3.18722
thorax -8.36967 -1.01546 1.80146
lowerneck -5.12667 0.40571 -1.14872
upperneck -12.0218 0.841751 3.02576
head -2.98264 0.384376 1.16602
rclavicle 3.85642e-014 4.85035e-014
rhumerus -52.505 8.71345 -88.7196
rradius 89.42
rwrist 4.32643
rhand -37.3685 35.0173
rfingers 7.12502
rthumb -10.4301 5.29597
lclavicle 3.85642e-014 4.85035e-014
lhumerus -15.1239 -17.7238 84.6806
lradius 114.339
lwrist 27.9897
lhand -33.6466 9.30495
lfingers 7.12502
lthumb -6.83844 39.1745
rfemur -30.9882 -8.54945 12.1453
rtibia 112.418
rfoot 15.9342 -6.2983
rtoes 8.87192
lfemur -7.4922 -2.8006 -30.6056
ltibia 34.5864
lfoot -16.7786 1.08429
ltoes -26.4392
56
root 0.291856 17.5874 -0.38297 3.63844 2.78039 6.60291
lowerback 19.4186 -0.944058 -8.32716
upperback 1.7913 -3.32146 -3.21618
thorax -8.66534 -1.33836 2.08759
lowerneck -5.3448 0.710558 -0.876332
upperneck -11.783 1.19296 2.51441
head -2.86185 0.563596 0.947436
rclavicle -2.22639e-014 -1.90833e-014
rhumerus -53.5738 8.8695 -89.0038
rradius 89.5741
rwrist 3.90442
rhand -37.5681 35.8781
rfingers 7.12502
rthumb -10.6226 6.16658
lclavicle -2.22639e-014 -1.90833e-014
lhumerus -14.7672 -17.5283 84.6134
lradius 114.901
lwrist 27.4433
lhand -33.6459 7.99542
lfingers 7.12502
lthumb -6.83775 37.865
rfemur -33.1528 -8.71399 12.1174
rtibia 111.226
rfoot 15.8392 -5.55539
rtoes 7.50705
lfemur -4.71302 -3.15705 -30.9927
ltibia 32.6407
lfoot -15.4402 0.835973
ltoes -28.3475
57
root 0.303763 17.6818 0.136554 3.85244 3.37432 6.95217
lowerback 19.9305 -1.50362 -8.40425
upperback 1.3767 -4.16035 -3.16443
thorax -9.32248 -1.69314 2.42939
lowerneck -5.50889 1.01305 -0.726509
upperneck -11.3498 1.53853 1.96466
head -2.68372 0.745909 0.740238
rclavicle 1.09332e-014 -1.82882e-014
rhumerus -54.893 9.13962 -89.1923
rradius 89.8332
rwrist 3.40708
rhand -38.0373 36.2727
rfingers 7.12502
rthumb -11.0753 6.58492
lclavicle 1.09332e-014 -1.82882e-014
lhumerus -15.2208 -17.3202 84.949
lradius 115.676
lwrist 27.0516
lhand -33.6861 7.25667
lfingers 7.12502
lthumb -6.8766 37.125
rfemur -35.2799 -8.94253 12.0869
rtibia 109.569
rfoot 16.3348 -4.49453
rtoes 11.2084
lfemur -1.99688 -3.60224 -31.3578
ltibia 30.5754
lfoot -13.7501 0.444025
ltoes -30.288
58
root 0.301391 17.7619 0.649903 4.13349 3.76652 7.08965
lowerback 19.3265 -1.98102 -8.60848
upperback 1.5508 -4.72495 -2.95602
thorax -8.70396 -1.98354 2.87819
lowerneck -5.61565 1.28379 -0.746781
upperneck -11.564 1.85961 1.43535
head -2.73549 0.918595 0.57224
rclavicle -3.89618e-014 -1.35174e-014
rhumerus -55.1859 9.44335 -89.1215
rradius 90.0127
rwrist 2.76414
rhand -38.5128 35.9583
rfingers 7.12502
rthumb -11.5339 6.29565
lclavicle -3.89618e-014 -1.35174e-014
lhumerus -14.6341 -17.107 84.993
lradius 116.253
lwrist 27.1176
lhand -33.9775 6.64533
lfingers 7.12502
lthumb -7.15787 36.5043
rfemur -37.6824 -8.81249 12.4978
rtibia 107.713
rfoot 16.3306 -3.56938
rtoes 14.175
lfemur 0.436038 -3.91635 -31.4137
ltibia 28.5285
lfoot -11.79 -0.140957
ltoes -32.1295
59
root 0.293867 17.8735 1.17536 4.57291 3.92434 7.06194
lowerback 18.7172 -2.31622 -8.85218
upperback 1.56193 -5.11448 -2.63433
thorax -8.26114 -2.17913 3.41776
lowerneck -5.4092 1.50905 -0.799474
upperneck -12.0257 2.1262 0.979468
head -2.92694 1.06267 0.430813
rclavicle 4.7112e-014 1.74931e-014
rhumerus -55.5999 9.66883 -88.9584
rradius 90.2056
rwrist 2.22396
rhand -38.9437 35.7158
rfingers 7.12502
rthumb -11.9494 6.07687
lclavicle 4.7112e-014 1.74931e-014
lhumerus -13.9497 -17.0829 85.0387
lradius 116.782
lwrist 28.0288
lhand -34.2221 5.26994
lfingers 7.12502
lthumb -7.39391 35.1207
rfemur -39.9702 -8.30745 13.1452
rtibia 105.35
rfoot 15.0417 -2.84678
rtoes 11.9078
lfemur 2.25256 -4.05674 -31.196
ltibia 26.4643
lfoot -8.71826 -1.42799
ltoes -31.6346
60
root 0.291542 17.9637 1.69326 4.9176 4.03408 7.01222
lowerback 18.846 -2.7306 -8.70076
upperback 1.14027 -5.66561 -2.48776
thorax -8.73453 -2.40967 3.64588
lowerneck -5.20525 1.775 -0.824733
upperneck -12.1602 2.46126 0.750898
head -3.00996 1.23494 0.356075
rclavicle -6.81831e-014 -2.70347e-014
rhumerus -56.878 9.90922 -89.1941
rradius 90.5595
rwrist 1.76486
rhand -38.9838 35.6418
rfingers 7.12502
rthumb -11.9881 6.00513
lclavicle -6.81831e-014 -2.70347e-014
lhumerus -14.463 -17.3257 85.1758
lradius 117.759
lwrist 30.0327
lhand -35.0796 4.69176
lfingers 7.12502
lthumb -8.22164 34.5118
rfemur -41.8315 -7.76676 13.6325
rtibia 102.774
rfoot 12.3356 -2.30506
rtoes 3.03298
lfemur 4.58108 -4.10246 -30.9846
ltibia 24.5704
lfoot -6.1022 -2.15872
ltoes -32.0683
